<svg width="23" height="22" viewBox="0 0 23 22" fill="none" xmlns="http://www.w3.org/2000/svg">
<path fill-rule="evenodd" clip-rule="evenodd" d="M13.5989 0.275081C11.2064 -0.283263 8.69531 -0.0158385 6.47405 1.03387C4.25279 2.08358 2.45194 3.85383 1.36434 6.05679C0.276731 8.25974 -0.0336686 10.7658 0.483608 13.1676C1.00089 15.5693 2.31542 17.7254 4.21346 19.2853C6.11149 20.8453 8.48141 21.7172 10.9379 21.7595C13.3943 21.8017 15.7928 21.0117 17.7433 19.518C18.1773 19.1857 18.2596 18.5646 17.9273 18.1307C17.5951 17.6967 16.9739 17.6144 16.54 17.9467C14.9441 19.1688 12.9817 19.8152 10.9719 19.7806C8.96207 19.746 7.02304 19.0326 5.4701 17.7563C3.91716 16.48 2.84164 14.7159 2.41841 12.7509C1.99518 10.7858 2.24915 8.73536 3.139 6.93295C4.02886 5.13053 5.50228 3.68214 7.31968 2.82329C9.13708 1.96443 11.1916 1.74563 13.1491 2.20246C15.1066 2.65928 16.852 3.76487 18.1015 5.33945C19.351 6.91401 20.0311 8.86494 20.0313 10.875V11.8646C20.0313 12.3895 19.8227 12.8929 19.4516 13.2641C19.0804 13.6353 18.577 13.8438 18.0521 13.8438C17.5272 13.8438 17.0238 13.6353 16.6526 13.2641C16.2814 12.8929 16.0729 12.3895 16.0729 11.8646V6.9167C16.0729 6.37017 15.6299 5.92712 15.0833 5.92712C14.5369 5.92712 14.094 6.36998 14.0938 6.91635C13.2668 6.2952 12.2389 5.92712 11.125 5.92712C8.39234 5.92712 6.17708 8.14237 6.17708 10.875C6.17708 13.6077 8.39234 15.8229 11.125 15.8229C12.5976 15.8229 13.9199 15.1796 14.8263 14.1587C14.9534 14.3375 15.096 14.5064 15.2531 14.6636C15.9955 15.4059 17.0023 15.823 18.0521 15.823C19.1019 15.823 20.1087 15.4059 20.8511 14.6636C21.5934 13.9213 22.0104 12.9144 22.0104 11.8646V10.875C22.0103 8.41823 21.179 6.03366 19.6519 4.10918C18.1247 2.1847 15.9914 0.833424 13.5989 0.275081ZM8.15625 10.875C8.15625 9.23544 9.4854 7.90628 11.125 7.90628C12.7646 7.90628 14.0938 9.23544 14.0938 10.875C14.0938 12.5146 12.7646 13.8438 11.125 13.8438C9.4854 13.8438 8.15625 12.5146 8.15625 10.875Z" fill="#2D3648"/>
</svg>
