<svg width="21" height="23" viewBox="0 0 21 23" fill="none" xmlns="http://www.w3.org/2000/svg">
<path fill-rule="evenodd" clip-rule="evenodd" d="M4.1875 9.89587V6.92712C4.1875 5.3524 4.81306 3.84217 5.92655 2.72868C7.04005 1.61518 8.55028 0.989624 10.125 0.989624C11.6997 0.989624 13.2099 1.61518 14.3234 2.72868C15.4369 3.84217 16.0625 5.3524 16.0625 6.92712V9.89587H17.0521C18.6917 9.89587 20.0208 11.225 20.0208 12.8646V19.7917C20.0208 21.4313 18.6917 22.7605 17.0521 22.7605H3.19792C1.55832 22.7605 0.229167 21.4313 0.229167 19.7917V12.8646C0.229167 11.225 1.55832 9.89587 3.19792 9.89587H4.1875ZM7.32604 4.12816C8.06837 3.38583 9.07519 2.96879 10.125 2.96879C11.1748 2.96879 12.1816 3.38583 12.924 4.12816C13.6663 4.87049 14.0833 5.87731 14.0833 6.92712V9.89587H6.16667V6.92712C6.16667 5.87731 6.5837 4.87049 7.32604 4.12816ZM3.19792 11.875C2.65138 11.875 2.20833 12.3181 2.20833 12.8646V19.7917C2.20833 20.3382 2.65138 20.7813 3.19792 20.7813H17.0521C17.5986 20.7813 18.0417 20.3382 18.0417 19.7917V12.8646C18.0417 12.3181 17.5986 11.875 17.0521 11.875H3.19792Z" fill="#2D3648"/>
</svg>
