<svg width="19" height="21" viewBox="0 0 19 21" fill="none" xmlns="http://www.w3.org/2000/svg">
<path fill-rule="evenodd" clip-rule="evenodd" d="M9.125 0.979126C6.39234 0.979126 4.17708 3.19438 4.17708 5.92704C4.17708 8.6597 6.39234 10.875 9.125 10.875C11.8577 10.875 14.0729 8.6597 14.0729 5.92704C14.0729 3.19438 11.8577 0.979126 9.125 0.979126ZM6.15625 5.92704C6.15625 4.28745 7.4854 2.95829 9.125 2.95829C10.7646 2.95829 12.0937 4.28745 12.0937 5.92704C12.0937 7.56664 10.7646 8.89579 9.125 8.89579C7.4854 8.89579 6.15625 7.56664 6.15625 5.92704Z" fill="#2D3648"/>
<path d="M5.16667 12.8541C3.8544 12.8541 2.59587 13.3754 1.66796 14.3033C0.740047 15.2313 0.21875 16.4898 0.21875 17.802V19.7812C0.21875 20.3277 0.661802 20.7708 1.20833 20.7708C1.75487 20.7708 2.19792 20.3277 2.19792 19.7812V17.802C2.19792 17.0147 2.51069 16.2596 3.06744 15.7028C3.62419 15.1461 4.37931 14.8333 5.16667 14.8333H13.0833C13.8707 14.8333 14.6258 15.1461 15.1826 15.7028C15.7393 16.2596 16.0521 17.0147 16.0521 17.802V19.7812C16.0521 20.3277 16.4951 20.7708 17.0417 20.7708C17.5882 20.7708 18.0312 20.3277 18.0312 19.7812V17.802C18.0312 16.4898 17.51 15.2313 16.582 14.3033C15.6541 13.3754 14.3956 12.8541 13.0833 12.8541H5.16667Z" fill="#2D3648"/>
</svg>
